<?xml version="1.0" encoding="UTF-8"?>
<svg version="1.1" xmlns="http://www.w3.org/2000/svg" width="1254" height="1254">
<path d="M0 0 C413.82 0 827.64 0 1254 0 C1254 413.82 1254 827.64 1254 1254 C840.18 1254 426.36 1254 0 1254 C0 840.18 0 426.36 0 0 Z " fill="#FDFDFD" transform="translate(0,0)"/>
<path d="M0 0 C1.27260681 0.00176239 2.54521362 0.00352478 3.85638428 0.00534058 C25.94883333 0.0730602 47.39839656 1.49937644 69.125 5.5 C70.23527557 5.70296692 70.23527557 5.70296692 71.36798096 5.91003418 C88.56523471 9.0820412 105.52724424 12.9473078 122.125 18.5 C123.09888672 18.81662598 124.07277344 19.13325195 125.07617188 19.45947266 C171.67815234 34.64042084 215.86927131 57.75332434 254.125 88.5 C255.09469727 89.274646 255.09469727 89.274646 256.08398438 90.06494141 C270.03513465 101.24609014 282.9552544 113.27135742 295.625 125.875 C296.73766235 126.98053223 296.73766235 126.98053223 297.87280273 128.10839844 C322.20466783 152.51457191 339.43732534 179.54799706 339.578125 214.85571289 C339.23301445 241.74612937 328.20351164 262.23893277 309.16796875 280.828125 C289.38428036 298.79091053 264.08503029 303.44643674 238.20507812 302.67919922 C231.23431019 302.27363932 224.72849116 300.70284016 218.125 298.5 C217.14781006 298.17854004 217.14781006 298.17854004 216.15087891 297.85058594 C206.92953866 294.71829385 198.95529977 290.32823449 191.125 284.5 C190.320625 283.90703125 189.51625 283.3140625 188.6875 282.703125 C180.67719123 276.53729523 173.45652507 269.44153094 166.125 262.5 C139.76708896 237.56972575 111.61959928 215.13308701 77.125 202.5 C76.37025391 202.22220703 75.61550781 201.94441406 74.83789062 201.65820312 C23.30685169 182.98753684 -36.67790398 184.39584701 -86.609375 207.53125 C-91.39935271 209.81558292 -96.14336403 212.18461746 -100.8515625 214.63305664 C-102.875 215.5 -102.875 215.5 -105.875 215.5 C-101.86563162 219.56303106 -97.73853066 223.48393681 -93.5625 227.375 C-92.8931543 227.99922852 -92.22380859 228.62345703 -91.53417969 229.26660156 C-87.68759285 232.84364655 -83.80930234 236.36960059 -79.828125 239.796875 C-77.30887724 241.99365905 -74.84397004 244.24689619 -72.375 246.5 C-68.58565874 249.95575413 -64.76416302 253.3652289 -60.89453125 256.73046875 C-55.97763444 261.03869748 -51.14860968 265.44686156 -46.296875 269.828125 C-42.55372391 273.20385022 -38.80703528 276.57137435 -35 279.875 C-31.08505417 283.28479153 -27.26322604 286.79339963 -23.44238281 290.30761719 C-18.61953089 294.74197003 -13.75175977 299.12502901 -8.875 303.5 C-6.37187583 305.75202707 -3.86953386 308.00492123 -1.3671875 310.2578125 C0.27239879 311.73292618 1.91299655 313.20691652 3.5546875 314.6796875 C8.1453061 318.80097768 12.70947107 322.94873788 17.25 327.125 C20.50890494 330.12180011 23.77999549 333.09914547 27.125 336 C33.1030522 341.18756596 38.88547708 346.59545173 44.70703125 351.95703125 C50.10835004 356.9294612 55.51864331 361.88180719 61.06640625 366.69140625 C64.57942302 369.7777948 68.01799818 372.94628778 71.47265625 376.09765625 C73.64960996 378.06941844 75.84338674 380.01365337 78.0625 381.9375 C81.47189108 384.89883969 84.80276584 387.94171289 88.125 391 C93.72297639 396.14796162 99.39182701 401.1909907 105.19921875 406.1015625 C112.28190106 412.10565347 119.16971635 418.26559625 125.9309082 424.63012695 C129.61491362 428.0972838 133.33736772 431.49586439 137.171875 434.796875 C139.69112276 436.99365905 142.15602996 439.24689619 144.625 441.5 C148.41434126 444.95575413 152.23583698 448.3652289 156.10546875 451.73046875 C160.15167032 455.27578657 164.13153707 458.8955502 168.125 462.5 C169.77070244 463.9793123 171.41653535 465.45847946 173.0625 466.9375 C176.63739761 470.15322422 180.19673123 473.38539909 183.75 476.625 C186.82809566 479.42757381 189.9180187 482.20967875 193.0625 484.9375 C196.4718858 487.8988351 199.8029431 490.94152486 203.125 494 C207.08632679 497.64663333 211.08291219 501.24329001 215.1484375 504.7734375 C222.23580953 510.96438303 229.15367982 517.34639994 236.0703125 523.7265625 C236.55709473 524.16234619 237.04387695 524.59812988 237.54541016 525.04711914 C238.68606934 526.09627877 239.79136674 527.18433388 240.87255859 528.29467773 C246.2847478 533.58433465 251.17960387 534.9383882 258.5 536.3125 C274.08330713 539.72321311 287.34397157 546.66386634 299.125 557.5 C300.47464844 558.71236328 300.47464844 558.71236328 301.8515625 559.94921875 C317.69784957 574.90060531 328.61869232 596.23556841 329.328125 618.21484375 C329.49563041 629.37689193 328.8838744 639.65671905 326.125 650.5 C325.83109375 651.70527344 325.5371875 652.91054688 325.234375 654.15234375 C320.52484837 670.61811411 309.90794989 684.51917916 298.49169922 697.00244141 C297.21898222 698.39701912 295.96980409 699.81297877 294.72265625 701.23046875 C287.06753424 709.90806752 279.06855459 717.94838384 270.015625 725.16796875 C267.50912394 727.19010542 265.06879468 729.26994362 262.64013672 731.38427734 C227.86128305 761.49150535 184.80573406 784.5449058 141.51171875 799.61328125 C139.62715931 800.31343672 137.7762214 801.10405422 135.94140625 801.92578125 C131.53956173 803.82984042 126.98943192 805.09307078 122.375 806.375 C121.45686523 806.6325708 120.53873047 806.8901416 119.59277344 807.15551758 C116.77183857 807.94312143 113.94860153 808.72201824 111.125 809.5 C110.28195312 809.73541504 109.43890625 809.97083008 108.5703125 810.21337891 C98.79187167 812.93720577 89.07855565 815.20650538 79.0546875 816.82421875 C76.265159 817.30392892 73.56637019 817.84315378 70.81640625 818.484375 C65.64470549 819.65740072 60.44371198 820.38160619 55.1875 821.0625 C54.28193359 821.18818359 53.37636719 821.31386719 52.44335938 821.44335938 C17.53376354 826.0197031 -19.18781131 825.25148679 -53.875 819.5 C-55.02258789 819.31276367 -56.17017578 819.12552734 -57.35253906 818.93261719 C-121.96309738 808.10497225 -181.93629638 781.82570569 -234.875 743.5 C-235.96385498 742.71278564 -235.96385498 742.71278564 -237.07470703 741.90966797 C-246.74052874 734.88383078 -255.93353266 727.42461686 -264.875 719.5 C-265.75671875 718.71882812 -266.6384375 717.93765625 -267.546875 717.1328125 C-270.00228798 714.93545248 -272.44082445 712.72085187 -274.875 710.5 C-275.85339844 709.61441406 -276.83179688 708.72882812 -277.83984375 707.81640625 C-285.98226778 700.42731419 -293.93052308 692.92682006 -301.0859375 684.5625 C-302.31598976 683.14444849 -303.57305377 681.74952322 -304.8515625 680.375 C-310.98532353 673.77284268 -316.39222115 666.71312112 -321.8125 659.52734375 C-324.11727208 656.47604422 -326.49165061 653.50261478 -328.9375 650.5625 C-362.71687791 608.514948 -386.55348338 553.59470678 -398.29150391 501.08544922 C-398.82606595 498.71682495 -399.39516939 496.3604091 -399.98046875 494.00390625 C-402.19636993 484.89501415 -403.70229197 475.71063487 -405.0625 466.4375 C-405.22959473 465.3144043 -405.39668945 464.19130859 -405.56884766 463.03417969 C-408.08060478 445.11818601 -408.06302085 427.20133574 -408.06030273 409.14428711 C-408.06022136 406.4248186 -408.06719789 403.70551813 -408.08081055 400.98608398 C-408.15450921 386.01984848 -408.06778362 371.32179429 -405.875 356.5 C-405.66387573 354.90297241 -405.66387573 354.90297241 -405.44848633 353.27368164 C-400.2321293 314.63933696 -388.9737711 276.98164293 -372.875 241.5 C-372.42189453 240.49501465 -371.96878906 239.4900293 -371.50195312 238.45458984 C-349.21679873 189.45934812 -316.24687292 141.20401516 -274.83984375 106.1875 C-272.4154227 104.10529345 -270.09149968 101.92497793 -267.75 99.75 C-214.60251038 51.41421726 -144.94127585 19.4978941 -74.75 6.3125 C-72.88770752 5.9553894 -72.88770752 5.9553894 -70.98779297 5.59106445 C-47.48808624 1.36218447 -23.84643344 -0.08947673 0 0 Z " fill="#08090D" transform="translate(627.875,191.5)"/>
<path d="M0 0 C2.89059376 1.31616112 5.02562293 2.75244237 7.3203125 4.94140625 C8.23961548 5.81043579 8.23961548 5.81043579 9.17749023 6.69702148 C9.82016846 7.31262939 10.46284668 7.9282373 11.125 8.5625 C12.47203718 9.83659234 13.81969422 11.11002963 15.16796875 12.3828125 C15.8232959 13.00317383 16.47862305 13.62353516 17.15380859 14.26269531 C22.28307785 19.08944485 27.55946912 23.75516233 32.875 28.375 C36.78994583 31.78479153 40.61177396 35.29339963 44.43261719 38.80761719 C48.45179264 42.50303276 52.49902409 46.16579085 56.5625 49.8125 C59.08760867 52.07862316 61.60616628 54.35190615 64.125 56.625 C67.06493057 59.27185338 70.01771722 61.90098248 73 64.5 C79.98273091 70.59072537 86.82767831 76.82886332 93.625 83.125 C97.7151973 86.91291944 101.83584013 90.65136682 106.05078125 94.30078125 C110.08097237 97.81407411 114.03086801 101.4181004 118 105 C118.804375 105.721875 119.60875 106.44375 120.4375 107.1875 C125.50052417 111.73123964 130.52904108 116.31103584 135.53857422 120.91357422 C138.67631113 123.79393829 141.83003818 126.65516247 145 129.5 C148.6883049 132.81001722 152.35065765 136.147145 156 139.5 C161.30121923 144.36943045 166.64104811 149.19423024 172 154 C177.92939891 159.31733193 183.82437868 164.6688051 189.68579102 170.06079102 C192.36242259 172.51748432 195.05957101 174.94175638 197.8125 177.3125 C202.50039834 181.37141408 206.9887823 185.64487596 211.51098633 189.88598633 C214.63263641 192.80832417 217.75678692 195.71197472 221 198.5 C225.58267229 202.44229887 229.9569323 206.60869139 234.36669922 210.74169922 C238.69720776 214.79622812 243.07460104 218.79078808 247.49609375 222.74609375 C255.93000975 230.33793389 264.19935982 238.11254026 272.48754883 245.86254883 C276.26305951 249.38956209 280.05837528 252.89252573 283.875 256.375 C289.00841302 261.07302094 294.10675517 265.80756599 299.1875 270.5625 C299.94337402 271.26616699 300.69924805 271.96983398 301.47802734 272.69482422 C302.18008301 273.35369629 302.88213867 274.01256836 303.60546875 274.69140625 C304.55135864 275.57614624 304.55135864 275.57614624 305.51635742 276.47875977 C307 278 307 278 308 280 C279.88137308 291.45071795 250.65098153 296.24008744 220.375 296.1875 C219.67246094 296.18656342 218.96992187 296.18562683 218.24609375 296.18466187 C159.06905652 296.01433322 103.92533904 272.5490059 60.75 232.4375 C60.08798584 231.82414795 59.42597168 231.2107959 58.74389648 230.57885742 C54.19055897 226.29272517 50.03428676 221.77516784 46 217 C45.26789307 216.14305542 45.26789307 216.14305542 44.52099609 215.26879883 C23.07840482 189.93262568 6.97146111 159.26185674 -1 127 C-1.33515625 125.72898437 -1.6703125 124.45796875 -2.015625 123.1484375 C-3.13803408 118.79081861 -4.09557687 114.4075366 -5 110 C-5.15388184 109.27603027 -5.30776367 108.55206055 -5.46630859 107.80615234 C-8.27710376 93.91626617 -8.29069251 79.92444931 -8.3125 65.8125 C-8.31608521 64.878685 -8.31967041 63.94487 -8.32336426 62.98275757 C-8.35906039 45.66880345 -7.18811098 28.81396116 -3.4375 11.875 C-3.21642578 10.82441406 -2.99535156 9.77382813 -2.76757812 8.69140625 C-1.14843105 1.14843105 -1.14843105 1.14843105 0 0 Z " fill="#FCFCFC" transform="translate(407,528)"/>
<path d="M0 0 C0.66 0.33 1.32 0.66 2 1 C-6.10546875 9.10546875 -6.10546875 9.10546875 -7.57177734 10.56396484 C-8.93751918 11.9371774 -10.27615158 13.33719321 -11.61328125 14.73828125 C-13.72132148 16.73591675 -15.33881761 17.91581458 -18 19 C-12.44964797 12.21623641 -6.23557973 6.14477032 0 0 Z " fill="#242526" transform="translate(347,303)"/>
<path d="M0 0 C3.80635497 3.20760251 7.54563567 6.40746109 11 10 C10.01 10.33 9.02 10.66 8 11 C6.65772182 9.73861805 5.32641323 8.46555441 4 7.1875 C3.2575 6.47980469 2.515 5.77210938 1.75 5.04296875 C0 3 0 3 0 0 Z " fill="#1B1C1F" transform="translate(352,898)"/>
<path d="M0 0 C0.66 0.99 1.32 1.98 2 3 C1.05125 3.7425 0.1025 4.485 -0.875 5.25 C-3.32532401 7.27845219 -4.87325363 8.9577848 -6 12 C-6.66 11.67 -7.32 11.34 -8 11 C-6.63629701 8.00779732 -5.05091917 5.70973471 -2.875 3.25 C-2.33617187 2.63640625 -1.79734375 2.0228125 -1.2421875 1.390625 C-0.62730469 0.70226562 -0.62730469 0.70226562 0 0 Z " fill="#222325" transform="translate(326,324)"/>
<path d="M0 0 C1.29608947 0.93137592 2.58671632 1.8703566 3.875 2.8125 C4.59429688 3.33457031 5.31359375 3.85664062 6.0546875 4.39453125 C8 6 8 6 10 9 C6.22089522 9 5.53893899 8.00296038 2.8125 5.5 C2.09707031 4.8503125 1.38164063 4.200625 0.64453125 3.53125 C0.10183594 3.0259375 -0.44085937 2.520625 -1 2 C-0.67 1.34 -0.34 0.68 0 0 Z " fill="#19191E" transform="translate(680,551)"/>
<path d="M0 0 C3.59905908 0.55550695 4.99909799 1.74887248 7.25 4.5625 C8.03117188 5.52349609 8.03117188 5.52349609 8.828125 6.50390625 C9.21484375 6.99761719 9.6015625 7.49132812 10 8 C7 8 7 8 5.17578125 6.50390625 C4.56089844 5.86324219 3.94601562 5.22257813 3.3125 4.5625 C2.68988281 3.92441406 2.06726563 3.28632812 1.42578125 2.62890625 C0 1 0 1 0 0 Z " fill="#1B1C1F" transform="translate(540,646)"/>
<path d="M0 0 C4.79280002 0.80904103 6.13520113 3.25984591 9 7 C6 7 6 7 4.39453125 5.46875 C3.87246094 4.8190625 3.35039063 4.169375 2.8125 3.5 C2.28269531 2.8503125 1.75289062 2.200625 1.20703125 1.53125 C0.80871094 1.0259375 0.41039062 0.520625 0 0 Z " fill="#17181A" transform="translate(529,636)"/>
<path d="M0 0 C3.5625 1.25 3.5625 1.25 7 3 C7.33 3.99 7.66 4.98 8 6 C4.08788267 4.84414715 1.1254959 3.64465038 -2 1 C-1.34 0.67 -0.68 0.34 0 0 Z " fill="#313132" transform="translate(451,968)"/>
<path d="M0 0 C2.31 1.98 4.62 3.96 7 6 C6.34 6.66 5.68 7.32 5 8 C3.02 5.69 1.04 3.38 -1 1 C-0.67 0.67 -0.34 0.34 0 0 Z " fill="#212125" transform="translate(564,666)"/>
<path d="M0 0 C3.91402949 1.26941497 5.79072873 2.51167694 8 6 C4.06830895 6 2.83572772 4.60580385 0 2 C0 1.34 0 0.68 0 0 Z " fill="#1C1C20" transform="translate(700,570)"/>
<path d="M0 0 C0.99 0.33 1.98 0.66 3 1 C1.35 2.65 -0.3 4.3 -2 6 C-2.99 5.67 -3.98 5.34 -5 5 C-3.35 3.35 -1.7 1.7 0 0 Z " fill="#1D1E21" transform="translate(359,292)"/>
<path d="M0 0 C4.455 1.98 4.455 1.98 9 4 C9 4.33 9 4.66 9 5 C2.25 4.125 2.25 4.125 0 3 C0 2.01 0 1.02 0 0 Z " fill="#111216" transform="translate(905,735)"/>
<path d="M0 0 C3.25543229 0.34879632 4.01873107 1.02133261 6.25 3.5625 C6.8275 4.366875 7.405 5.17125 8 6 C5 6 5 6 3.61328125 4.6875 C2.40885417 3.125 1.20442708 1.5625 0 0 Z " fill="#191A1D" transform="translate(583,685)"/>
<path d="M0 0 C0.66 0.99 1.32 1.98 2 3 C0.35 4.65 -1.3 6.3 -3 8 C-2.45276317 4.62537285 -1.9451 2.91765 0 0 Z " fill="#222327" transform="translate(287,375)"/>
<path d="M0 0 C0.66 0.33 1.32 0.66 2 1 C-1.75 4 -1.75 4 -4 4 C-4.33 4.99 -4.66 5.98 -5 7 C-5.99 6.34 -6.98 5.68 -8 5 C-6.71475739 4.13619741 -5.42157581 3.28419631 -4.125 2.4375 C-3.04605469 1.72400391 -3.04605469 1.72400391 -1.9453125 0.99609375 C-1.30335938 0.66738281 -0.66140625 0.33867188 0 0 Z " fill="#DBDBDC" transform="translate(853,949)"/>
<path d="M0 0 C3.465 1.485 3.465 1.485 7 3 C6.67 3.66 6.34 4.32 6 5 C4.02 4.34 2.04 3.68 0 3 C0 2.01 0 1.02 0 0 Z " fill="#101014" transform="translate(523,799)"/>
</svg>
