<?xml version="1.0" encoding="UTF-8"?>
<svg version="1.1" xmlns="http://www.w3.org/2000/svg" width="1254" height="1254">
<path d="M0 0 C413.82 0 827.64 0 1254 0 C1254 413.82 1254 827.64 1254 1254 C840.18 1254 426.36 1254 0 1254 C0 840.18 0 426.36 0 0 Z " fill="#000000" transform="translate(0,0)"/>
<path d="M0 0 C0.96265778 -0.00637985 1.92531555 -0.0127597 2.91714478 -0.01933289 C3.9555954 -0.02044571 4.99404602 -0.02155853 6.06396484 -0.02270508 C7.68943741 -0.02769768 7.68943741 -0.02769768 9.3477478 -0.03279114 C11.64930803 -0.0378572 13.95087561 -0.04019956 16.25244141 -0.04003906 C19.71318378 -0.04219783 23.17359256 -0.06027925 26.63427734 -0.0793457 C39.29802125 -0.11169833 51.60771862 0.40051385 64.14990234 2.14526367 C66.03506294 2.37265718 67.920444 2.5982394 69.80615234 2.82104492 C111.95697757 8.23631405 152.88477432 19.50731353 191.14990234 38.14526367 C192.57737793 38.83338135 192.57737793 38.83338135 194.03369141 39.53540039 C207.08498407 45.84872905 219.83185342 52.49392205 232.14990234 60.14526367 C232.74383789 60.51184082 233.33777344 60.87841797 233.94970703 61.25610352 C266.5718781 81.4883849 302.63936138 107.62086583 325.14990234 139.14526367 C326.25398437 140.65733398 326.25398437 140.65733398 327.38037109 142.19995117 C338.00989234 157.34518013 343.56866228 175.05259435 343.46240234 193.52026367 C343.45748779 194.53540039 343.45257324 195.55053711 343.44750977 196.59643555 C343.33383093 203.85788985 342.53210783 210.25800023 340.14990234 217.14526367 C339.80958984 218.30670898 339.46927734 219.4681543 339.11865234 220.66479492 C334.40933606 236.11326151 327.06788307 248.30090883 316.14990234 260.14526367 C315.27591797 261.1584668 315.27591797 261.1584668 314.38427734 262.19213867 C302.16064587 275.6504804 280.86515991 284.99485668 263.14990234 287.14526367 C259.10758579 287.33685871 255.07129561 287.37608645 251.02490234 287.39526367 C249.96013672 287.41588867 248.89537109 287.43651367 247.79833984 287.45776367 C240.16145926 287.49483591 233.45812748 286.30693375 226.14990234 284.14526367 C225.12743408 283.85530518 224.10496582 283.56534668 223.05151367 283.26660156 C202.75550863 277.35429481 188.94531511 263.20810712 175.00244141 248.14135742 C138.50649267 208.81730933 85.20292892 185.13576756 31.69970703 183.00805664 C14.99610892 182.49187356 -1.01880708 183.21603379 -17.43652344 186.64575195 C-19.48199044 187.06908045 -21.53834648 187.43925487 -23.59619141 187.79760742 C-42.51671397 191.27280544 -60.58085473 198.89270511 -77.85009766 207.14526367 C-75.52901166 210.14842319 -73.25943154 212.83305853 -70.35009766 215.27026367 C-66.82546063 218.28389384 -63.38498013 221.37801417 -59.97509766 224.52026367 C-54.63427331 229.43375504 -49.25302224 234.30006034 -43.85009766 239.14526367 C-37.97409065 244.41471512 -32.12864323 249.71532016 -26.31591797 255.05444336 C-21.52434915 259.4521003 -16.69198902 263.80318045 -11.85009766 268.14526367 C-5.97409065 273.41471512 -0.12864323 278.71532016 5.68408203 284.05444336 C10.47566334 288.45211176 15.3088026 292.80228352 20.14990234 297.14526367 C21.81682882 298.64497495 23.48349383 300.14497688 25.14990234 301.64526367 C26.38740234 302.75901367 26.38740234 302.75901367 27.64990234 303.89526367 C35.14990234 310.64526367 35.14990234 310.64526367 37.66162109 312.90698242 C39.28766509 314.36965622 40.91520697 315.830667 42.54443359 317.28979492 C47.85036155 322.04712936 53.10090634 326.86022554 58.33056641 331.70092773 C62.39700531 335.4610075 66.50246414 339.17490645 70.62646484 342.87182617 C73.46160501 345.42608558 76.27659499 348.00181311 79.08740234 350.58276367 C89.39651309 360.09761004 89.39651309 360.09761004 99.89990234 369.39526367 C104.60537127 373.47852183 109.11706895 377.76988666 113.66064453 382.03100586 C116.78236649 384.95343584 119.90660181 387.85716322 123.14990234 390.64526367 C127.73257464 394.58756255 132.10683465 398.75395506 136.51660156 402.88696289 C140.84308741 406.93772547 145.21573165 410.92928325 149.63427734 414.87963867 C153.18259032 418.07532427 156.6856796 421.31901632 160.19116211 424.56152344 C163.85701152 427.95228639 167.53011842 431.33485444 171.21240234 434.70776367 C171.94885986 435.38234619 171.94885986 435.38234619 172.70019531 436.07055664 C173.68874749 436.97588969 174.67735411 437.8811633 175.66601562 438.78637695 C177.66072753 440.61305784 179.65450141 442.44076072 181.64819336 444.26855469 C182.64729858 445.18449589 183.64648445 446.10034912 184.64575195 447.01611328 C187.17186308 449.33119995 189.69695533 451.64738156 192.22021484 453.96557617 C196.78020212 458.15314146 201.34726138 462.33083596 205.96240234 466.45776367 C210.83785953 470.83317396 215.62332318 475.30122985 220.40649414 479.77685547 C226.09931 485.1033622 231.82324827 490.39526296 237.55712891 495.67749023 C240.80017985 498.66602829 244.03962119 501.65847922 247.27978516 504.65014648 C249.96190997 507.1263253 252.64481086 509.60165016 255.32958984 512.07495117 C256.11873779 512.80307007 256.11873779 512.80307007 256.92382812 513.54589844 C257.99029617 514.52796622 259.05898274 515.50763032 260.12988281 516.48486328 C263.12656534 519.22965206 266.04805921 522.02706613 268.91552734 524.90698242 C277.31142818 533.47495716 277.31142818 533.47495716 288.34130859 537.53588867 C298.66869286 539.7766007 307.99285415 546.79108703 316.14990234 553.14526367 C316.95298828 553.73307617 317.75607422 554.32088867 318.58349609 554.92651367 C335.48256547 567.46545216 348.40107451 588.85055521 351.71240234 609.68432617 C352.35215418 615.14002303 352.29535941 620.59685965 352.27490234 626.08276367 C352.27876953 627.11594727 352.28263672 628.14913086 352.28662109 629.21362305 C352.25021287 657.95791819 338.73755692 679.21921772 319.14990234 699.14526367 C318.30508301 700.00522949 317.46026367 700.86519531 316.58984375 701.7512207 C313.82524363 704.55632416 311.05251999 707.35305131 308.27490234 710.14526367 C307.39552002 711.02947998 306.5161377 711.91369629 305.61010742 712.82470703 C300.61681236 717.80475853 295.51986588 722.57517511 290.14990234 727.14526367 C289.12864267 728.03409696 288.10778051 728.9233873 287.08740234 729.81323242 C250.63266361 761.08092721 208.8838447 784.94392655 164.14990234 802.14526367 C162.95494141 802.61053467 162.95494141 802.61053467 161.73583984 803.08520508 C140.94399033 811.11369424 118.98817358 815.95221948 97.14990234 820.14526367 C95.96146729 820.37705322 95.96146729 820.37705322 94.74902344 820.61352539 C86.89510446 822.13303224 79.03590273 823.3622311 71.08740234 824.27026367 C70.42820801 824.34591553 69.76901367 824.42156738 69.08984375 824.49951172 C-4.08969786 832.25938403 -76.8313795 818.42031653 -142.85009766 786.14526367 C-143.73858398 785.71133301 -144.62707031 785.27740234 -145.54248047 784.83032227 C-175.96407877 769.80040218 -204.48133343 750.34707249 -229.44384766 727.34057617 C-230.76438354 726.13580155 -232.09271507 724.93873048 -233.45385742 723.7800293 C-239.61716781 718.51766526 -245.34103137 712.8404495 -251.06762695 707.11303711 C-252.77552821 705.4073177 -254.4912781 703.7097734 -256.20751953 702.01245117 C-262.87669928 695.37737686 -269.01457113 688.53845701 -274.85009766 681.14526367 C-275.922291 679.85104971 -276.99866738 678.56028145 -278.08056641 677.27416992 C-296.67277181 654.94438803 -311.81615025 630.3556229 -325.44897461 604.75317383 C-326.95618471 601.94780386 -328.50157387 599.16499528 -330.04541016 596.37963867 C-332.07498024 592.66252775 -333.85751617 589.0155886 -335.28759766 585.02026367 C-337.5003646 579.02645807 -339.89092156 573.12755141 -342.35180664 567.23266602 C-351.49257281 545.24335952 -358.3926361 522.29502547 -363.25048828 498.99975586 C-363.79472509 496.40886954 -364.37078878 493.82789683 -364.95947266 491.24682617 C-366.07636261 486.2376325 -366.9787898 481.20218017 -367.85009766 476.14526367 C-368.12515137 474.65615479 -368.12515137 474.65615479 -368.40576172 473.13696289 C-371.99462898 452.95489799 -372.28098205 432.68559998 -372.34184265 412.24677277 C-372.34993235 410.12609835 -372.36491102 408.00557215 -372.38146973 405.88494873 C-372.57942806 376.77680221 -369.22243616 348.5888969 -362.85009766 320.14526367 C-362.6312793 319.14543457 -362.41246094 318.14560547 -362.18701172 317.11547852 C-354.83161044 283.74928594 -344.13400107 250.30445333 -327.88964844 220.10229492 C-326.68796704 217.84004078 -325.53252577 215.55665255 -324.37744141 213.27026367 C-310.0863659 185.16910002 -292.56236166 157.84161249 -271.11572266 134.62182617 C-269.22569503 132.55583046 -267.37876625 130.46485074 -265.54150391 128.35229492 C-256.53251752 118.03085261 -247.19935843 108.13277961 -236.85009766 99.14526367 C-235.09857689 97.52190296 -233.34864866 95.89682274 -231.60009766 94.27026367 C-225.28695123 88.53345786 -218.63589091 83.30501008 -211.85009766 78.14526367 C-211.26244629 77.69538086 -210.67479492 77.24549805 -210.06933594 76.78198242 C-154.96235244 34.76688047 -81.85223677 3.2884742 -11.90478516 1.28588867 C-9.01765926 1.26071341 -9.01765926 1.26071341 -6.96231079 0.64555359 C-4.57907516 0.08107042 -2.44883247 0.01107506 0 0 Z " fill="#E5E3E7" transform="translate(613.85009765625,197.854736328125)"/>
<path d="M0 0 C5.46808986 3.79935399 10.13698772 8.017937 14.78515625 12.77734375 C17.38923483 15.39060779 20.12223113 17.79890093 22.91796875 20.203125 C29.58744623 25.95914684 36.05104116 31.95324226 42.53808594 37.91308594 C45.67595143 40.79365048 48.82986695 43.65500881 52 46.5 C55.6883049 49.81001722 59.35065765 53.147145 63 56.5 C68.30121923 61.36943045 73.64104811 66.19423024 79 71 C84.84976326 76.24591673 90.67082012 81.52124362 96.45947266 86.83447266 C106.08340496 95.69825764 106.08340496 95.69825764 115.875 104.375 C120.02469555 107.98047318 124.04764299 111.71833584 128.0793457 115.4543457 C132.17675789 119.24872813 136.31402203 122.99538766 140.47265625 126.72265625 C143.849234 129.7652294 147.19480481 132.84118744 150.54150391 135.91650391 C153.65651092 138.77616612 156.78860242 141.61523037 159.9375 144.4375 C164.90238091 148.89397711 169.80134952 153.41948062 174.69921875 157.94921875 C183.86022815 166.42106611 193.09003713 174.8138303 202.38671875 183.13671875 C208.20592243 188.35619773 213.96051993 193.64172242 219.69921875 198.94921875 C227.22861505 205.91219558 234.79579277 212.8312739 242.4296875 219.6796875 C245.34428447 222.31079783 248.23539224 224.96652475 251.125 227.625 C254.36213091 230.6022264 257.61137856 233.55952966 260.9375 236.4375 C266.17721535 240.98292595 271.23191143 245.73130225 276.31982422 250.44482422 C282.76662332 256.41200095 289.22153864 262.36267392 295.86328125 268.11328125 C299.19201581 271.05254778 302.44788872 274.071345 305.70117188 277.09375 C308.02475699 279.24097779 310.3559563 281.27437286 312.86328125 283.20703125 C313.56839844 283.79871094 314.27351563 284.39039063 315 285 C315 285.66 315 286.32 315 287 C270.09007502 309.28632708 217.8968104 320.85596689 168 310 C166.57373291 309.69400879 166.57373291 309.69400879 165.11865234 309.38183594 C151.32504119 306.34215322 138.06697243 302.35513038 125 297 C124.25588867 296.69868164 123.51177734 296.39736328 122.74511719 296.08691406 C85.36206407 280.77395992 50.35691618 254.11858909 27 221 C26.58637207 220.42008301 26.17274414 219.84016602 25.74658203 219.24267578 C11.14256999 198.59330804 -0.49703841 175.50623457 -7 151 C-7.33386719 149.81792969 -7.66773438 148.63585937 -8.01171875 147.41796875 C-13.55809494 127.39740638 -16.35997869 107.83074067 -16.26074219 87.09985352 C-16.2499971 84.43678103 -16.2607202 81.77438069 -16.2734375 79.11132812 C-16.28161051 68.88150191 -15.64179282 59.11404829 -14 49 C-13.80701878 47.57721019 -13.61632327 46.15410483 -13.4296875 44.73046875 C-11.09695177 29.83052994 -7.41438034 13.23003492 0 0 Z " fill="#010101" transform="translate(429,524)"/>
<path d="M0 0 C0 3.22042163 -0.3437243 4.31110798 -2 7 C-3.890625 8.8671875 -3.890625 8.8671875 -6.25 10.875 C-13.15846144 16.92243619 -19.55242408 23.46880999 -26 30 C-26.66 29.67 -27.32 29.34 -28 29 C-27.29391602 28.29915283 -26.58783203 27.59830566 -25.86035156 26.8762207 C-23.22626346 24.26031535 -20.59555389 21.64103421 -17.96582031 19.02075195 C-16.83001216 17.88995377 -15.69330569 16.7600571 -14.55566406 15.63110352 C-12.91491034 14.00256206 -11.27747918 12.370741 -9.640625 10.73828125 C-9.13629944 10.23911697 -8.63197388 9.7399527 -8.11236572 9.22566223 C-5.18647917 6.3002359 -2.52270103 3.27898795 0 0 Z " fill="#1E1E1F" transform="translate(945,883)"/>
<path d="M0 0 C0 3.38755275 -0.43021201 5.00313201 -2 8 C-3.94348501 9.73223664 -5.94720004 11.39881603 -8 13 C-9.35099103 14.31543863 -10.69205669 15.64175118 -12 17 C-12.66 16.34 -13.32 15.68 -14 15 C-12.98679687 14.00419922 -12.98679687 14.00419922 -11.953125 12.98828125 C-11.06109375 12.10527344 -10.1690625 11.22226562 -9.25 10.3125 C-8.36828125 9.44238281 -7.4865625 8.57226562 -6.578125 7.67578125 C-4.21194702 5.21997532 -2.08107444 2.69858952 0 0 Z " fill="#131314" transform="translate(937,449)"/>
<path d="M0 0 C0.33 0 0.66 0 1 0 C2.125 6.75 2.125 6.75 1 9 C1.020625 10.0725 1.04125 11.145 1.0625 12.25 C1.00064461 15.96132367 0.33932739 18.56797357 -1 22 C-1.33 22 -1.66 22 -2 22 C-2.29883729 14.52906777 -1.15925507 7.36955011 0 0 Z " fill="#B6B5B8" transform="translate(245,551)"/>
<path d="M0 0 C1.98567708 0.5859375 3.97135417 1.171875 5.95703125 1.7578125 C5.95703125 2.4178125 5.95703125 3.0778125 5.95703125 3.7578125 C6.94703125 4.0878125 7.93703125 4.4178125 8.95703125 4.7578125 C4.1935254 4.04328662 -0.38498271 2.96246406 -5.04296875 1.7578125 C-2.04296875 -0.2421875 -2.04296875 -0.2421875 0 0 Z " fill="#C4C3C5" transform="translate(540.04296875,1007.2421875)"/>
<path d="M0 0 C0.66 0.33 1.32 0.66 2 1 C2 1.66 2 2.32 2 3 C0.03125 4.5078125 0.03125 4.5078125 -2.5 6.125 C-3.3353125 6.66382813 -4.170625 7.20265625 -5.03125 7.7578125 C-5.6809375 8.16773438 -6.330625 8.57765625 -7 9 C-7.66 8.67 -8.32 8.34 -9 8 C-6.03 5.36 -3.06 2.72 0 0 Z " fill="#D1D0D3" transform="translate(388,287)"/>
<path d="M0 0 C4.29238623 1.65091778 6.8793915 4.73754566 10 8 C9.67 8.66 9.34 9.32 9 10 C7.49410612 8.71520959 5.99542625 7.42195918 4.5 6.125 C3.6646875 5.40570312 2.829375 4.68640625 1.96875 3.9453125 C1.3190625 3.30335938 0.669375 2.66140625 0 2 C0 1.34 0 0.68 0 0 Z " fill="#D3D2D5" transform="translate(496,583)"/>
<path d="M0 0 C1.32 1.32 2.64 2.64 4 4 C2.02 5.32 0.04 6.64 -2 8 C-2.33 7.34 -2.66 6.68 -3 6 C-2.06553465 3.96855359 -1.06775224 1.96466413 0 0 Z " fill="#212121" transform="translate(429,524)"/>
<path d="M0 0 C2.97 0.33 5.94 0.66 9 1 C9 1.33 9 1.66 9 2 C3.61509359 2.91657981 -1.54230189 3.11138159 -7 3 C-7 2.67 -7 2.34 -7 2 C-4.69 2 -2.38 2 0 2 C0 1.34 0 0.68 0 0 Z " fill="#ABAAAC" transform="translate(674,1020)"/>
<path d="M0 0 C3.36591866 1.44253657 5.51047079 3.33264727 8 6 C7.67 6.66 7.34 7.32 7 8 C5.8274869 7.04882866 4.66212985 6.08882991 3.5 5.125 C2.8503125 4.59132813 2.200625 4.05765625 1.53125 3.5078125 C1.0259375 3.01023437 0.520625 2.51265625 0 2 C0 1.34 0 0.68 0 0 Z " fill="#D7D6D9" transform="translate(663,735)"/>
<path d="M0 0 C3.25543229 0.34879632 4.01873107 1.02133261 6.25 3.5625 C6.8275 4.366875 7.405 5.17125 8 6 C7.01 6.495 7.01 6.495 6 7 C6 6.34 6 5.68 6 5 C5.38125 4.731875 4.7625 4.46375 4.125 4.1875 C2 3 2 3 0 0 Z " fill="#CECDCE" transform="translate(868,711)"/>
<path d="M0 0 C0 0.99 0 1.98 0 3 C-4.455 3.495 -4.455 3.495 -9 4 C-3 0 -3 0 0 0 Z " fill="#232425" transform="translate(804,989)"/>
<path d="M0 0 C0.66 0.33 1.32 0.66 2 1 C1.01 1.33 0.02 1.66 -1 2 C-1.33 2.99 -1.66 3.98 -2 5 C-3.98 5.33 -5.96 5.66 -8 6 C-5.63404067 3.38499232 -3.13950774 1.61000397 0 0 Z " fill="#262627" transform="translate(851,963)"/>
<path d="M0 0 C3.36591866 1.44253657 5.51047079 3.33264727 8 6 C7.67 6.66 7.34 7.32 7 8 C5.8274869 7.04882866 4.66212985 6.08882991 3.5 5.125 C2.8503125 4.59132813 2.200625 4.05765625 1.53125 3.5078125 C1.0259375 3.01023437 0.520625 2.51265625 0 2 C0 1.34 0 0.68 0 0 Z " fill="#DDDBDE" transform="translate(519,604)"/>
</svg>
